<svg id="visual" viewBox="0 0 1920 1080" width="1920" height="1080" xmlns="http://www.w3.org/2000/svg" xmlns:xlink="http://www.w3.org/1999/xlink" version="1.1"><rect x="0" y="0" width="1920" height="1080" fill="#001220"></rect><defs><linearGradient id="grad1_0" x1="43.8%" y1="0%" x2="100%" y2="100%"><stop offset="14.444444444444446%" stop-color="#fbae3c" stop-opacity="1"></stop><stop offset="85.55555555555554%" stop-color="#fbae3c" stop-opacity="1"></stop></linearGradient></defs><defs><linearGradient id="grad1_1" x1="43.8%" y1="0%" x2="100%" y2="100%"><stop offset="14.444444444444446%" stop-color="#fbae3c" stop-opacity="1"></stop><stop offset="85.55555555555554%" stop-color="#96446e" stop-opacity="1"></stop></linearGradient></defs><defs><linearGradient id="grad1_2" x1="43.8%" y1="0%" x2="100%" y2="100%"><stop offset="14.444444444444446%" stop-color="#001220" stop-opacity="1"></stop><stop offset="85.55555555555554%" stop-color="#96446e" stop-opacity="1"></stop></linearGradient></defs><defs><linearGradient id="grad2_0" x1="0%" y1="0%" x2="56.3%" y2="100%"><stop offset="14.444444444444446%" stop-color="#fbae3c" stop-opacity="1"></stop><stop offset="85.55555555555554%" stop-color="#fbae3c" stop-opacity="1"></stop></linearGradient></defs><defs><linearGradient id="grad2_1" x1="0%" y1="0%" x2="56.3%" y2="100%"><stop offset="14.444444444444446%" stop-color="#96446e" stop-opacity="1"></stop><stop offset="85.55555555555554%" stop-color="#fbae3c" stop-opacity="1"></stop></linearGradient></defs><defs><linearGradient id="grad2_2" x1="0%" y1="0%" x2="56.3%" y2="100%"><stop offset="14.444444444444446%" stop-color="#96446e" stop-opacity="1"></stop><stop offset="85.55555555555554%" stop-color="#001220" stop-opacity="1"></stop></linearGradient></defs><g transform="translate(1920, 0)"><path d="M0 972C-119.4 923.4 -238.8 874.7 -337.5 814.9C-436.2 755 -514.1 684 -613.8 613.8C-713.4 543.5 -834.7 474.1 -898 372C-961.3 269.8 -966.7 134.9 -972 0L0 0Z" fill="#3d3056"></path><path d="M0 648C-79.6 615.6 -159.2 583.1 -225 543.2C-290.8 503.3 -342.8 456 -409.2 409.2C-475.6 362.4 -556.5 316.1 -598.7 248C-640.9 179.9 -644.4 89.9 -648 0L0 0Z" fill="#e1685e"></path><path d="M0 324C-39.8 307.8 -79.6 291.6 -112.5 271.6C-145.4 251.7 -171.4 228 -204.6 204.6C-237.8 181.2 -278.2 158 -299.3 124C-320.4 89.9 -322.2 45 -324 0L0 0Z" fill="#fbae3c"></path></g><g transform="translate(0, 1080)"><path d="M0 -972C136.2 -969.3 272.3 -966.6 372 -898C471.6 -829.4 534.7 -694.8 588.3 -588.3C641.9 -481.8 686 -403.3 748.3 -310C810.7 -216.6 891.4 -108.3 972 0L0 0Z" fill="#3d3056"></path><path d="M0 -648C90.8 -646.2 181.6 -644.4 248 -598.7C314.4 -552.9 356.5 -463.2 392.2 -392.2C427.9 -321.2 457.3 -268.9 498.9 -206.6C540.5 -144.4 594.2 -72.2 648 0L0 0Z" fill="#e1685e"></path><path d="M0 -324C45.4 -323.1 90.8 -322.2 124 -299.3C157.2 -276.5 178.2 -231.6 196.1 -196.1C214 -160.6 228.7 -134.4 249.4 -103.3C270.2 -72.2 297.1 -36.1 324 0L0 0Z" fill="#fbae3c"></path></g></svg>